Coordinates
version=1
nRows=17
nColumns=24
inDegrees=yes

Units are S.I. units (second, meters, Newtons, ...)
Angles are in degrees.

endheader
time	pelvis_tilt	pelvis_list	pelvis_rotation	pelvis_tx	pelvis_ty	pelvis_tz	hip_flexion_r	hip_adduction_r	hip_rotation_r	knee_angle_r	ankle_angle_r	subtalar_angle_r	mtp_angle_r	hip_flexion_l	hip_adduction_l	hip_rotation_l	knee_angle_l	ankle_angle_l	subtalar_angle_l	mtp_angle_l	lumbar_extension	lumbar_bending	lumbar_rotation
      0.57600000	     -1.98549131	      6.40785937	      4.36834685	     -0.89246695	      0.99185121	      0.27618328	     24.65392439	     -7.53063075	    -10.03523548	      5.22992559	      0.39847098	     -8.50215298	     -1.31730946	    -11.84419433	      7.02197602	     -4.16495677	     -4.88338424	     10.43597740	     -3.84875006	      0.22197650	    -10.49797328	     -7.11354941	     -1.07466956
      0.58016667	     -1.49851277	      6.26548686	      4.50995587	     -0.88678340	      0.99199510	      0.27604891	     24.19453598	     -7.43706338	    -10.00200845	      4.68648288	      0.36462703	     -8.78417793	     -6.43780317	    -12.59970255	      6.75432284	     -3.92358472	     -5.09232086	     10.46740111	     -3.99469815	      0.60285249	    -11.05742695	     -6.79202332	     -1.13435141
      0.58433333	     -1.41647094	      6.21414038	      4.55218072	     -0.88104681	      0.99140727	      0.27629169	     24.27176436	     -7.39685401	     -9.72680264	      3.96342742	      0.31024997	     -9.16023121	     -6.49493494	    -12.86120693	      6.61253259	     -3.91677492	     -5.45888769	     10.65868699	     -3.80648118	      0.61912434	    -11.13037142	     -6.65536188	     -1.36653257
      0.58850000	     -1.27592267	      6.11053264	      4.63504464	     -0.87522437	      0.99100609	      0.27645478	     24.23664374	     -7.31113990	     -9.54125838	      3.27944708	      0.13212310	     -9.61695871	     -6.54430217	    -13.18182146	      6.40354294	     -3.83136552	     -5.82550838	     10.77731704	     -3.75038162	      0.64002909	    -11.25672749	     -6.44045525	     -1.45365519
      0.59266667	     -0.90327928	      5.93033843	      4.68046050	     -0.86929209	      0.99100985	      0.27667630	     23.90403000	     -7.11465409	     -9.43831795	      2.66179121	     -0.13137304	    -10.02894403	     -6.64464087	    -13.75197205	      6.08933611	     -3.85658198	     -6.17443477	     10.85000100	     -3.61796374	      0.71565394	    -11.63755209	     -6.11102382	     -1.60595432
      0.59683333	     -0.71093485	      5.82591205	      4.79617434	     -0.86346776	      0.99079702	      0.27683046	     23.77728314	     -7.02880592	     -9.33438846	      1.98960242	     -0.45359889	    -10.50897116	     -6.67763491	    -14.09468067	      5.86088670	     -3.70997888	     -6.59384250	     10.87270556	     -3.62060521	      0.76238040	    -11.83293871	     -5.88983376	     -1.66033468
      0.60100000	     -0.33506401	      5.63222923	      4.86465797	     -0.85751662	      0.99090244	      0.27707652	     23.40910768	     -6.81509957	     -9.27185320	      1.38856632	     -0.83113026	    -10.94456939	     -6.69885875	    -14.62883070	      5.51935879	     -3.66943588	     -7.01940580	     10.93773145	     -3.52018940	      0.88540421	    -12.22010139	     -5.54482844	     -1.84142583
      0.60516667	     -0.14164236	      5.51595467	      4.96603218	     -0.85162612	      0.99078676	      0.27733674	     23.25107518	     -6.69603101	     -9.18510833	      0.75197023	     -1.28808195	    -11.45990520	     -6.69432738	    -14.93405238	      5.27009440	     -3.54574966	     -7.50253283	     10.89311049	     -3.51643350	      0.96030733	    -12.40691178	     -5.31772827	     -1.87779797
      0.60933333	      0.02850452	      5.37178889	      5.03190308	     -0.84564710	      0.99066144	      0.27764804	     23.10536117	     -6.53205714	     -9.07509831	      0.14042311	     -1.80710712	    -11.96726277	     -6.68391788	    -15.20732876	      5.00326111	     -3.43933967	     -8.01614561	     10.91845145	     -3.54143782	      1.01726577	    -12.54719215	     -5.05598079	     -1.92971593
      0.61350000	      0.50161963	      5.13737487	      5.04249232	     -0.83958710	      0.99104761	      0.27812439	     22.57731630	     -6.22375827	     -9.03296855	     -0.35304540	     -2.41280528	    -12.44250699	     -6.58326583	    -15.78777715	      4.59980375	     -3.54763354	     -8.53341517	     10.86366782	     -3.34321539	      1.24585242	    -13.03779718	     -4.67755787	     -2.06127215
      0.61766667	      0.61192490	      5.00380894	      5.11225478	     -0.83357374	      0.99096389	      0.27848228	     22.46469391	     -6.06761917	     -8.95566506	     -0.90598350	     -3.08382445	    -12.96546023	     -6.55589565	    -15.94942699	      4.34735325	     -3.41829944	     -9.12509317	     10.74967475	     -3.44405157	      1.31759731	    -13.10743981	     -4.44158806	     -2.03911937
      0.62183333	      1.02481680	      4.77213725	      5.09146574	     -0.82746570	      0.99135603	      0.27905214	     21.98201066	     -5.74513889	     -8.88585114	     -1.35025071	     -3.80849894	    -13.48950566	     -6.32793520	    -16.42575450	      3.96001663	     -3.53913912	     -9.71974197	     10.61402286	     -3.31021230	      1.72580698	    -13.50951506	     -4.07388933	     -2.05889759
      0.62600000	      0.45385005	      4.69268280	      4.92083105	     -0.82087280	      0.99028525	      0.27986771	     22.67312143	     -5.58419667	     -8.45109777	     -2.00398314	     -4.53850320	    -14.08492338	     -6.16071278	    -15.85405824	      3.89420225	     -3.68687317	    -10.40136518	     10.44715716	     -3.41232454	      2.02305374	    -12.74066378	     -4.05158260	     -1.97487740
      0.63016667	      0.53357205	      4.55216887	      4.93195362	     -0.81489784	      0.99032733	      0.28038612	     22.57734543	     -5.39901360	     -8.37546929	     -2.50212553	     -5.31749659	    -14.53881809	     -6.12824795	    -15.88709138	      3.64913847	     -3.63666346	    -11.15844169	     10.21438922	     -3.55987414	      2.10322286	    -12.78513566	     -3.82901639	     -1.91518712
      0.63433333	      0.64325270	      4.39278642	      4.90629712	     -0.80884739	      0.99046576	      0.28100954	     22.43075557	     -5.17278523	     -8.26834922	     -2.96097502	     -6.11382748	    -15.06848894	     -6.08429592	    -15.93402106	      3.38329087	     -3.67028860	    -11.94615285	      9.94809210	     -3.65282059	      2.21010567	    -12.85018931	     -3.58425539	     -1.90183124
      0.63850000	      0.88081981	      4.19082355	      4.74965491	     -0.80275824	      0.99078196	      0.28199535	     22.15580147	     -4.83132835	     -8.05321437	     -3.40399387	     -6.87150111	    -15.64169561	     -5.87192399	    -16.09187898	      3.06511024	     -3.96318293	    -12.78616248	      9.69972824	     -3.51639815	      2.66500267	    -13.06797471	     -3.32852129	     -1.80230415
      0.64266667	      0.92968931	      4.00432278	      4.70565154	     -0.79660633	      0.99096238	      0.28265097	     22.05090786	     -4.57934638	     -7.97113667	     -3.83381634	     -7.61408239	    -16.12512860	     -5.78138044	    -16.01521182	      2.78378699	     -4.02161572	    -13.68263332	      9.30509395	     -3.69630246	      2.89334555	    -13.04746995	     -3.06514888	     -1.71158024
